# xmcd
#
# Track frame offsets:
#	150
#	14900
#	28931
#	42763
#	58734
#	77690
#	97006
#	106021
#	118536
#	133617
#
# Disc length: 2027 seconds
#
# Revision: 2
# Processed by: cddbd v1.5.2PL0 Copyright (c) Steve Scherf et al.
# Submitted via: audiograbber 1.83.01
#
DISCID=8207e90a
DTITLE=The Bitter Sweets - Further up the Mountain
DYEAR=2009
DGENRE=Country
TTITLE0=I Like to Smoke
TTITLE1=White Lines
TTITLE2=Jimmy Brown
TTITLE3=Old Shoes Blues
TTITLE4=Tidings
TTITLE5=Rain and Snow
TTITLE6=Old Banjo Song
TTITLE7=Sunny Side of the Mountain
TTITLE8=Cocaine Blues
TTITLE9=He Blues
EXTD=
EXTT0=
EXTT1=
EXTT2=
EXTT3=
EXTT4=
EXTT5=
EXTT6=
EXTT7=
EXTT8=
EXTT9=
PLAYORDER=
